<?xml version="1.0" encoding="utf-8"?>
<!-- Generator: Adobe Illustrator 25.3.1, SVG Export Plug-In . SVG Version: 6.00 Build 0)  -->
<svg version="1.1" id="Capa_1" xmlns="http://www.w3.org/2000/svg" xmlns:xlink="http://www.w3.org/1999/xlink" x="0px" y="0px"
	 viewBox="0 0 2000 2000" style="enable-background:new 0 0 2000 2000;" xml:space="preserve">
<style type="text/css">
	.st0{fill:#02234C;}
</style>
<g>
	<path class="st0" d="M945.3,1836.2c-64.4-18.1-131.1-30.5-192.8-55.3c-160.1-64.2-242.1-191-242.1-362c0-210.4-0.1-420.8,0.2-631.3
		c0-12.9-0.8-27.3,4.4-38.5c11.7-25,33-38,61.4-31.5c29.2,6.7,38.5,27.9,38.5,56.2c-0.4,192-0.3,384-0.2,576
		c0,15.8,0.1,31.6,0.9,47.3c7.4,151.1,91.6,244.4,228.2,295.6c235.8,88.4,463.5-21.7,525.7-252.7c43.7-162.1-39.6-284.9-206.5-300
		c-64.2-5.8-129.1-6.5-193.6-5.3c-130.9,2.5-232-82.8-235.2-213.2c-4.7-194.5-2-389.2-1.6-583.8c0.1-32.7,15.3-55.2,52.2-56.4
		c35.5-1.2,49.8,18.2,51.8,50.6c1.1,18.3,3.2,36.6,3.3,55c0.3,161.8,0,323.5,0.2,485.3c0.1,105.7,48.3,152.7,155.3,153.6
		c55.4,0.5,110.7,2.6,166.1,3.5c77.3,1.3,146.8,26.8,214.9,72.4c1.9-15,4.1-24.5,4.1-34c-0.3-156.5-1.3-312.9-1-469.4
		c0-17.7,1.3-40.2,11.7-51.9c12.2-13.7,35.8-25.7,52.9-23.9c14.6,1.5,31.1,21.6,39.3,37.3c7.3,14,5.9,33.2,5.9,50.2
		c0.3,243.3,0.3,486.6,0.2,729.9c-0.2,278.9-145.9,447.5-423.1,489.9c-6.2,1-12.1,4.3-18.2,6.5
		C1014,1836.2,979.6,1836.2,945.3,1836.2z"/>
	<path class="st0" d="M1053.4,810.5c0,30.2,2,60.6-0.5,90.7c-2.7,31.9-17.4,55.3-55.2,53.1c-36.4-2-50.9-23.9-51.5-57.1
		c-0.9-57.8-0.2-115.7-1.5-173.5c-0.5-24,9.4-31.5,32.8-32.4c76.4-2.8,76.4-3.6,76.4,71.9c0,15.8,0,31.6,0,47.3
		C1053.7,810.5,1053.6,810.5,1053.4,810.5z"/>
	<path class="st0" d="M1053.9,506.7c0,30.2-1.3,60.5,0.4,90.7c1.5,27.8-10.9,38.5-37.3,37.2c-10.5-0.5-21.2-0.9-31.6,0.1
		c-31.2,3-41.8-10.8-40.9-41.4c1.8-57.8,1.5-115.7,0.1-173.4c-0.7-27.7,9.9-38.8,37.1-36c9.1,0.9,18.6,1.2,27.7-0.1
		c34.7-4.8,48.2,9.2,45,44.1C1052,453.9,1053.9,480.4,1053.9,506.7z"/>
	<path class="st0" d="M1270.3,812.9c-0.1,30.1,0.7,60.3-0.3,90.4c-1,30.6-16.7,49.3-48.4,50.6c-31.5,1.3-51.7-16-53.2-45.9
		c-3.2-64-3.5-128.3-2.1-192.4c0.2-8.6,16.1-23.2,25.9-24.3c78.1-8.8,78.2-8,78.2,70.5C1270.4,778.9,1270.4,795.9,1270.3,812.9z"/>
	<path class="st0" d="M946.2,259.4c0-15.7-2.1-31.7,0.4-46.9c4.8-29,23.1-47.2,53-48.6c29.6-1.4,47.6,16.7,50.7,44.3
		c3.7,32.3,3.8,65.1,2.1,97.6c-0.4,7.8-13.4,15.8-21.8,22c-3.4,2.5-10.2,0.5-15.4,0.6C944.9,329.9,944.9,329.9,946.2,259.4z"/>
	<path class="st0" d="M1270.4,369.5c0,75.2-0.1,76.2-76.6,68c-10.5-1.1-26.2-16.5-27.6-26.8c-3.5-27-1.9-54.9,0.6-82.3
		c3-32.9,28.5-55.4,57.4-51.9c33.4,4,46.5,25.8,46.2,57.6C1270.2,346,1270.3,357.8,1270.4,369.5z"/>
	<path class="st0" d="M1272.5,562.5c0,2.6,0,5.2,0,7.8c0,62.3-25.6,81.3-87.5,62.1c-8.8-2.7-17.9-17.7-19.2-28
		c-2.9-23.2,0.5-47.1-1.4-70.5c-2.9-35.5,10.3-48.7,47.3-47.2C1272.4,489.3,1272.5,487.2,1272.5,562.5z"/>
</g>
<g>
	<path class="st0" d="M2275.6,630.1c-13.1-3.7-26.7-6.2-39.2-11.2c-32.6-13.1-49.3-38.9-49.3-73.6c0-42.8,0-85.6,0-128.4
		c0-2.6-0.2-5.6,0.9-7.8c2.4-5.1,6.7-7.7,12.5-6.4c5.9,1.4,7.8,5.7,7.8,11.4c-0.1,39.1-0.1,78.1,0,117.2c0,3.2,0,6.4,0.2,9.6
		c1.5,30.7,18.6,49.7,46.4,60.1c48,18,94.3-4.4,107-51.4c8.9-33-8.1-58-42-61c-13.1-1.2-26.3-1.3-39.4-1.1
		c-26.6,0.5-47.2-16.8-47.8-43.4c-1-39.6-0.4-79.2-0.3-118.8c0-6.7,3.1-11.2,10.6-11.5c7.2-0.3,10.1,3.7,10.5,10.3
		c0.2,3.7,0.7,7.5,0.7,11.2c0.1,32.9,0,65.8,0,98.7c0,21.5,9.8,31.1,31.6,31.3c11.3,0.1,22.5,0.5,33.8,0.7
		c15.7,0.3,29.9,5.5,43.7,14.7c0.4-3,0.8-5,0.8-6.9c-0.1-31.8-0.3-63.7-0.2-95.5c0-3.6,0.3-8.2,2.4-10.6c2.5-2.8,7.3-5.2,10.8-4.9
		c3,0.3,6.3,4.4,8,7.6c1.5,2.8,1.2,6.8,1.2,10.2c0.1,49.5,0.1,99,0,148.5c0,56.7-29.7,91-86.1,99.7c-1.3,0.2-2.5,0.9-3.7,1.3
		C2289.5,630.1,2282.5,630.1,2275.6,630.1z"/>
	<path class="st0" d="M2575.6,424.6c0.3-3.3,0.9-6.9,0.9-10.6c-0.1-20-0.3-40.1-0.8-60.1c-0.2-7.3,1.9-10.3,10-10.2
		c19.8,0.3,19.8-0.1,19.8,19.5c0,55.9,0,111.8,0,167.6c0,10.7-0.1,10.8-10.7,10.8c-18.2,0-18.2,0-18.2-18.1c0-19.8,0-39.6,0-59.4
		c0-3.4-0.5-6.8-0.8-10.7c-27,0-53.5,0-81.1,0c0,3.7,0,7.4,0,11c0,23-0.2,46,0.1,69c0.1,6.4-2,8.3-8.3,8.3
		c-19.6,0-19.6,0.2-19.6-19.3c0-55.6,0-111.2,0-166.8c0-11.1,0-11.1,10.7-11.1c17,0,17,0,17,16.8c0,19,0.1,38-0.1,56.9
		c0,4.7,0.9,7.9,6.4,7.9c24.1-0.2,48.3-0.4,72.4-0.6C2573.8,425.5,2574.3,425.1,2575.6,424.6z"/>
	<path class="st0" d="M2857.8,420.7c24-26.3,60.1-19.9,76.5-1.2c7.6,8.7,11.4,18.7,11.4,30c0.1,28.1-0.1,56.2,0.1,84.3
		c0,6-2.1,8-8,7.9c-22.2-0.5-18.6,2.7-18.9-18.6c-0.2-20.6-0.2-41.2-0.4-61.8c-0.1-4.5-0.5-9.1-1.3-13.5
		c-2.3-12.9-9.2-18.7-21.9-18.8c-12.2-0.1-20.4,6.2-22.2,18.7c-1.4,10.3-1.4,20.8-1.5,31.2c-0.2,18.5-0.2,36.9,0,55.4
		c0.1,5.6-1.8,7.6-7.4,7.5c-24.2-0.5-19.6,2.9-19.9-19c-0.3-20.6,0-41.2-0.1-61.8c0-4.5-0.4-9.1-1.4-13.5
		c-2.6-12.1-10.5-18.5-21.9-18.3c-13.5,0.2-20.8,5.6-22.4,19.1c-1.5,12.7-1.2,25.6-1.3,38.4c-0.2,15.8-0.3,31.6,0.1,47.4
		c0.1,6.1-2.1,7.9-8,7.8c-21.5-0.5-18.4,2.7-18.6-18.1c-0.1-23.8,0-47.6,0-71.4c0-22,9.7-37.2,28.5-45c20-8.2,40.5-4.3,55.7,10.8
		C2855.9,418.9,2856.9,419.8,2857.8,420.7z"/>
	<path class="st0" d="M3067.5,500.4c0,10.7,0.5,19.4-0.3,28c-0.3,2.7-3.7,5.8-6.5,7.5c-23.8,14.9-56.2,9.8-77.2-11.9
		c-22.2-22.8-26.6-62.9-10-90.1c17.1-28.1,59.1-39.1,92.4-24.6c23.8,10.4,35.5,28.6,36.2,53.9c0.6,23.8,0,47.6,0.2,71.4
		c0,5.1-1.6,7.3-6.9,7.2c-24.9-0.5-19.8,3.1-20.2-19.5c-0.3-17.4,0-34.8-0.1-52.1c0-23.4-12.7-38.2-34.6-40.7
		c-24.6-2.7-43.3,9.5-48.7,31.8c-6.9,28.5,9.5,53.5,37.6,57.1c11.5,1.5,20.9-3.2,29.3-10.4C3060.9,505.9,3063.3,503.9,3067.5,500.4z
		"/>
	<path class="st0" d="M3239.3,494.2c0,13.4-0.2,26.7,0.1,40.1c0.1,5.5-1.8,7.6-7.5,7.5c-22.9-0.6-18.5,3-18.8-18.4
		c-0.3-19.2,0-38.5-0.1-57.8c0-12.3-3.2-23.2-13.7-31c-9.8-7.3-20-8.5-30.9-3.2c-11.1,5.4-17.5,14-17.7,26.5
		c-0.2,24.6-0.5,49.2-0.1,73.8c0.1,7.4-1.6,10.4-9.7,10.2c-17.7-0.5-17.8-0.1-17.7-18.1c0-21.4,0-42.8,0.2-64.2
		c0.4-31.8,26.5-57.5,57.6-56.9c33.8,0.6,58.1,24.9,58.1,57.8c0,11.2,0,22.5,0,33.7C3239.2,494.2,3239.2,494.2,3239.3,494.2z"/>
	<path class="st0" d="M2746,453.8c0,13.4,0.5,26.8-0.1,40.1c-1,24.5-21.7,46.3-46.1,49.4c-30.7,3.9-57.7-10.9-65.2-36
		c-1.6-5.6-2.5-11.5-2.6-17.3c-0.5-24.9-0.4-49.7-0.9-74.6c-0.1-7.1,2-9.9,9.6-9.7c20,0.6,16.6-1.6,16.8,16.6
		c0.2,20.9-0.2,41.7,0.1,62.6c0.3,21.5,16.8,36.3,36.3,33.2c12.4-2,23-12.3,24.9-26.1c1.4-10.5,1.3-21.3,1.4-32
		c0.2-15.5,0.2-31,0-46.5c-0.1-5.5,1.7-7.7,7.3-7.6c22.4,0.4,18.8-2.6,19.1,18.4c0.1,5.1,0,10.2,0,15.2c0,4.8,0,9.6,0,14.4
		C2746.4,453.8,2746.2,453.8,2746,453.8z"/>
	<path class="st0" d="M3396,453.1c4.6,1.6,8.3,2.9,12.1,4.2c29.1,10.5,30.5,52.5,7,70.1c-10.5,7.9-22.1,11.7-35.1,11.7
		c-16.1-0.1-32.2-0.2-48.3,0c-5.2,0.1-7.2-1.7-7.1-6.9c0.1-49.5,0.1-98.9,0.1-148.4c0-3.6-0.1-7.3,5.1-7.2c19,0.3,38.1-0.3,57.1,1.1
		c19.1,1.5,32.8,14.2,35.7,30.5c3,17.1-5.5,33.2-22.4,42.3C3399,451.2,3397.9,451.9,3396,453.1z M3339.6,493.8
		C3339.6,493.8,3339.6,493.8,3339.6,493.8c0.1,9.1,0.2,18.2,0,27.2c-0.1,4.5,1.7,6.4,6.1,6.2c13.9-0.6,27.9-0.3,41.7-1.7
		c17.5-1.9,28.9-15.4,28.6-32.1c-0.3-16.4-11.7-28.8-29.4-30.3c-13.3-1.2-26.7-1.1-40.1-1.8c-5.9-0.3-7.3,2.3-7.1,7.7
		C3339.9,477.3,3339.6,485.6,3339.6,493.8z M3341.5,388.5c-0.9,1.8-1.5,2.6-1.5,3.3c-0.1,17.4-0.4,34.7-0.1,52.1
		c0,1.7,3.3,4.7,5.3,4.8c8.3,0.5,16.9,1.3,24.9-0.3c9.2-1.9,18.7-4.9,26.5-9.9c9.9-6.3,12.1-17.2,9.7-28.5
		c-2.4-11.4-10.5-17.7-21.3-19C3370.5,389.1,3355.7,389.2,3341.5,388.5z"/>
	<path class="st0" d="M3572.6,542.3c-23.8-0.2-44.1-7.5-55.9-29.4c-12.3-22.8-10.3-46.1,2.6-68c11.8-20,42.2-29.7,69.5-24.1
		c22.5,4.6,37.9,17,44.1,39.3c4.1,15,3.8,30.3-1.3,45C3623.4,528.8,3602.2,541.9,3572.6,542.3z M3572.8,530.4
		c27.7,0.9,47.3-17.6,48.2-45.7c1.1-32.5-16-52.7-45.3-53.6c-30.9-0.9-52.4,18.4-52.2,49.3C3523.7,507.4,3536.1,529.2,3572.8,530.4z
		"/>
	<path class="st0" d="M3680.4,438.6c13.4-14.8,29.1-19.6,47.2-19c22.8,0.8,38.8,15.1,39.8,37.9c1,25.1,0.6,50.2,0.9,75.3
		c0.1,4.3-1.3,6.3-6,6.2c-4.8-0.1-7.5-1.3-7.5-6.7c0.1-19.8,0.3-39.6-0.1-59.3c-0.1-6.6-0.9-13.4-2.6-19.8
		c-3.9-14.4-13-21.3-27.9-22.1c-25.1-1.5-44.2,16.3-44.6,42c-0.3,19.2-0.1,38.5,0,57.7c0,4.5,0.1,8.3-6.5,8.3c-6.6,0-7.4-3-7.4-8.4
		c0.1-32.3,0-64.7,0.1-97c0-4.7-1.7-11.4,6-11.7c7.6-0.3,7.7,5.8,7.8,11.3C3679.7,434.5,3680,435.5,3680.4,438.6z"/>
	<path class="st0" d="M3970.9,521.7c8.3,2.7,16.5,6.6,25,7.6c8,1,16.5-0.3,24.4-2c7.9-1.7,11.5-8.1,12.1-16.1
		c0.6-7.7-3.5-12.7-9.9-15.9c-13.1-6.7-27-12.2-39.3-20c-18.7-11.9-18.1-35.8,0.7-47.7c5.5-3.5,12.2-6.9,18.5-7
		c11.9-0.2,24,1.2,35.8,3.4c7.9,1.5,4.2,9,5.1,14.8c-8.1-2.4-15.5-5.8-23.2-6.5c-7.5-0.8-15.4,0.2-22.8,2.1
		c-7.5,1.9-12.1,7.8-12.5,15.9c-0.5,8.4,3.3,14.3,10.9,17.9c12.1,5.7,24.3,11.2,36.3,17.2c17.9,9,20.5,33.4,5.1,46.2
		c-14.8,12.3-48.2,14.4-64.1,4.1C3968.5,532.8,3968.1,529.8,3970.9,521.7z"/>
	<path class="st0" d="M3946,438.2c-27.7-10.9-53.9-12-73.3,15c-11.4,15.8-11,43.7,1.1,59.1c20,25.5,45.6,20.4,71.2,10.2
		c3.1,10.1,2.2,12-6.8,15.3c-26.5,9.8-58.7,4-73.8-14.2c-16.7-20.2-19-43.5-9.1-67c9.8-23.3,29.4-34.8,54.2-36.6
		c8.9-0.6,18.1,1.1,27,2.7C3948.4,424.9,3948.4,425.4,3946,438.2z"/>
	<path class="st0" d="M3465,480.5c0-16.8,0.1-33.7-0.1-50.5c0-4.8,1-7.6,6.6-7.6c5.5,0.1,7.5,2.4,7.4,7.8c0,33.7,0,67.3,0.4,101
		c0.1,5.9-2.2,8.4-7.8,8.4c-6,0-6.6-3.8-6.5-8.6C3465.1,514.2,3465,497.4,3465,480.5z"/>
	<path class="st0" d="M3819.8,482.3c0,16.6-0.1,33.1,0,49.7c0,4.2-0.4,7.1-5.9,7.1c-5.2,0-8-1.3-8-7.1c0.1-34.2,0.1-68.4,0-102.6
		c0-4.5,1.3-7,6.3-6.9c4.9,0.1,7.6,1.7,7.5,6.9C3819.8,447.1,3819.8,464.7,3819.8,482.3C3819.8,482.3,3819.8,482.3,3819.8,482.3z"/>
	<path class="st0" d="M2696.1,588.6c4.8-2.3,8.2-4.6,12-5.6c8.9-2.3,16.6,2.4,17.7,11.4c1.1,9,0.9,18.1,0.9,27.2
		c0,1.5-2.1,3.1-3.2,4.6c-1.4-1.6-4-3-4.1-4.7c-0.6-6.6-0.4-13.3-0.5-20c0-5.8-1.2-11.4-8.3-11.4c-6.7,0-10.8,4.4-11.3,11.2
		c-0.4,5.6,0.2,11.3-0.6,16.8c-0.4,2.9-2.8,5.4-4.3,8.1c-1.2-2.6-3.1-5.1-3.4-7.8c-0.7-6.1-0.7-12.2-0.8-18.4
		c-0.1-4.9-1.1-9.5-6.9-10c-6.1-0.5-10.6,2.8-11.5,8.9c-1,6.8-0.6,13.9-1.5,20.7c-0.3,2.3-2.4,4.4-3.7,6.6c-1.4-2.3-3.8-4.5-3.9-6.8
		c-0.4-9.9-0.2-19.8-0.1-29.7c0.1-4.9,1.6-7.9,7.3-5.2c1.2,0.6,3,1,4,0.5C2682.5,580.6,2690,581.9,2696.1,588.6z"/>
	<path class="st0" d="M3660.2,586.6c9.4-1.3,16.3-3.6,22.7-2.5c3.5,0.6,8,6.4,8.8,10.5c1.6,8.6,1.3,17.5,1.2,26.3
		c0,1.8-2.3,3.6-3.6,5.3c-1.2-1.9-3.4-3.8-3.6-5.8c-0.6-6.6-0.3-13.3-0.7-20c-0.4-5.2-1.5-10.6-8.4-10.5c-6.2,0.1-9.9,3.7-10.6,9.9
		c-0.6,5.8-0.7,11.7-1.4,17.5c-0.4,3.2-1.4,6.3-2.2,9.4c-1.1,0-2.1,0.1-3.1,0.1c-0.8-2.9-2.2-5.8-2.4-8.8c-0.4-5.6,0-11.2-0.2-16.8
		c-0.1-5.4-1.2-10.4-7.7-11.3c-5.4-0.8-11.2,4.4-11.9,10.8c-0.7,6.6-0.4,13.3-1.2,19.9c-0.2,2-2.6,3.7-4,5.5c-1-1.9-2.9-3.8-3-5.7
		c-0.3-10.7-0.4-21.4,0.1-32c0.1-1.6,3.1-4,5.1-4.5c2.8-0.8,6.3,0.6,9.1-0.4C3651.1,580.7,3657.2,583.9,3660.2,586.6z"/>
	<path class="st0" d="M3162.8,589.1c4.2-2.4,7.5-4.9,11.1-6c9.1-2.8,17.8,2.8,18.6,12.1c0.7,8.5,0.6,17.1,0.3,25.6
		c-0.1,1.8-2.2,3.6-3.4,5.3c-1.2-1.7-3.2-3.4-3.3-5.3c-0.5-6.9-0.3-13.9-0.6-20.8c-0.2-5.1-1.6-9.9-7.9-10.1c-5.8-0.2-10,3-11,8.6
		c-1.1,6.3-0.9,12.8-1.7,19.1c-0.4,3.1-1.5,6.1-2.3,9.2c-1,0-2,0-2.9,0c-0.8-2.4-2.3-4.9-2.4-7.3c-0.4-6.1,0-12.3-0.1-18.4
		c-0.1-5.4-1.4-10.7-7.9-11.1c-6.5-0.3-10.6,3.8-11.3,10.1c-0.7,6.1-0.4,12.3-1.2,18.4c-0.3,2.4-2.4,4.5-3.7,6.8
		c-1.2-2.3-3.2-4.6-3.3-7c-0.4-9.1-0.3-18.2-0.1-27.2c0.1-4.4-0.4-10.6,7.3-5.3c0.8,0.5,2.6,0.2,3.6-0.4
		C3149.1,580.8,3156.6,581.9,3162.8,589.1z"/>
	<path class="st0" d="M2297.5,421.4c0,6.2,0.4,12.3-0.1,18.4c-0.5,6.5-3.5,11.2-11.2,10.8c-7.4-0.4-10.4-4.9-10.5-11.6
		c-0.2-11.8,0-23.5-0.3-35.3c-0.1-4.9,1.9-6.4,6.7-6.6c15.5-0.6,15.5-0.7,15.5,14.6C2297.6,415,2297.6,418.2,2297.5,421.4
		C2297.6,421.4,2297.6,421.4,2297.5,421.4z"/>
	<path class="st0" d="M2499.3,565.9c6.8,3.3,13.8,6.3,20.3,10c1.4,0.8,1.2,4.4,1.8,6.7c-2.4-0.2-4.9,0-7.2-0.7
		c-5.9-1.9-11.6-5.8-17.5-6.1c-10-0.5-17.8,6.1-20.7,14.8c-3,9.1-0.7,17.8,6.4,24c7.6,6.7,17,7.9,26.1,3.3c1.9-1,3.5-2.8,5.5-3.3
		c2.4-0.6,5.1-0.2,7.6-0.3c-0.9,2.2-1.1,5.1-2.7,6.5c-10,8.8-27.8,9.7-39.1,2.4c-11-7.1-16.3-21.9-12.3-34.5
		C2471.5,575.9,2484.1,567.4,2499.3,565.9z"/>
	<path class="st0" d="M2297.6,359.6c0,6.1-0.3,12.3,0.1,18.4c0.3,5.7-2.2,7.8-7.6,7.6c-2.1-0.1-4.3-0.2-6.4,0
		c-6.3,0.6-8.5-2.2-8.3-8.4c0.4-11.8,0.3-23.5,0-35.3c-0.1-5.6,2-7.9,7.6-7.3c1.9,0.2,3.8,0.2,5.6,0c7.1-1,9.8,1.9,9.2,9
		C2297.3,348.9,2297.6,354.3,2297.6,359.6z"/>
	<path class="st0" d="M3338.7,586.3c0-4-0.3-8.2,0.1-12.3c0.2-1.9,2-3.7,3.1-5.5c1.2,1.7,3.4,3.4,3.5,5.2
		c0.3,15.2,0.2,30.4,0.1,45.7c0,4.6-1.4,6.9-6.9,5.4c-2.6-0.7-5.9,1-8.8,1.9c-8.8,2.8-16.5,1-22.9-5.5c-6.6-6.7-8.3-14.8-5.3-23.6
		c2.8-8.3,8.5-14,17.4-14.4C3325,582.9,3331,585,3338.7,586.3z M3323.1,620.6c8,0.2,15.5-7.3,15.5-15.3c0-7.9-6.8-15-14.6-15.4
		c-8-0.4-15.7,6.8-15.9,14.9C3307.9,612.8,3315,620.4,3323.1,620.6z"/>
	<path class="st0" d="M4017.1,606.5c-12.1,0-23.8,0-35.9,0c0.5,7.5,4.1,12.4,9.8,13c4.7,0.5,9.8-2,14.7-3.5c1.1-0.3,1.7-2.4,2.8-2.7
		c1.8-0.6,3.8-0.5,5.7-0.6c0,1.8,0.6,4-0.2,5.5c-5.2,9.4-20.4,12.6-30.6,6.6c-10.1-5.8-13.8-21.6-7.4-31.8
		c5.5-8.8,15.6-12.5,25.8-9.5C4012.2,586.5,4017.2,593.5,4017.1,606.5z M3982.4,596.2c0.5,0.9,1,1.8,1.6,2.7c7.8,0,15.6,0,23.9,0
		c-2.7-6.8-7.4-9.9-13.4-8.8C3990.3,590.9,3986.4,594.1,3982.4,596.2z"/>
	<path class="st0" d="M2564.9,606.4c0.3,7.4,3.3,12.2,8.9,12.9c4.7,0.6,10-1.2,14.7-2.9c3.2-1.2,5.1-7.8,9.4-3.1
		c0.9,1-2.4,7.4-5.2,9.8c-7.5,6.5-19.1,6.5-27,1c-7.6-5.3-11.3-16.4-8.5-25.7c2.9-9.4,10.3-15.4,19.9-15.9
		c10.3-0.6,19,5.1,22.7,14.6c2.4,6.1,0.9,9.3-5.9,9.3C2584.5,606.4,2574.9,606.4,2564.9,606.4z M2591.6,599
		c-3.1-7.1-7.8-9.6-13.9-9.1c-5.3,0.4-9.5,2.7-11.2,9.1C2575,599,2582.7,599,2591.6,599z"/>
	<path class="st0" d="M2341.7,421.9c0,6.1,0.1,12.3-0.1,18.4c-0.2,6.2-3.4,10-9.9,10.3c-6.4,0.3-10.5-3.3-10.8-9.3
		c-0.7-13-0.7-26.1-0.4-39.1c0-1.7,3.3-4.7,5.3-4.9c15.9-1.8,15.9-1.6,15.9,14.3C2341.7,415,2341.7,418.5,2341.7,421.9z"/>
	<path class="st0" d="M2850.1,606.5c0.4,7.5,3.7,12.1,9.3,12.8c4.5,0.6,9.4-1.4,14-2.6c1.3-0.4,2.1-2.7,3.5-3.2
		c1.9-0.7,4.2-0.5,6.3-0.8c-0.2,2.1,0.3,4.7-0.8,6.2c-4.9,7.4-15.9,10.6-25.2,7.8c-9.1-2.7-15.5-11.2-15.8-21
		c-0.4-11,7-20.4,17.7-22.6c11.2-2.4,21.3,2.8,25.6,13c3.4,7.9,2,10.3-6.5,10.4C2869.3,606.6,2860.2,606.5,2850.1,606.5z
		 M2877,599.1c-3.5-7.3-8.5-10.4-14.8-8.9c-4,0.9-7.4,4.3-11,6.5c0.4,0.8,0.9,1.6,1.3,2.4C2860.3,599.1,2868.2,599.1,2877,599.1z"/>
	<path class="st0" d="M2617,606.5c0.7,7.1,3.8,12,9.3,12.7c4.8,0.6,10-1.4,14.9-2.7c3.2-0.8,6.2-2.4,9.3-3.6
		c-1.8,3.5-2.7,8-5.5,10.3c-9,7.3-23.1,5.7-30.6-2.6c-7.6-8.4-7.6-22.2-0.1-30.8c7.3-8.4,20.5-10.1,29.8-3.2
		c3.4,2.6,6.3,6.6,7.9,10.6c2.8,6.9,0.8,9.2-6.6,9.3C2636.3,606.6,2627.2,606.5,2617,606.5z M2643.5,599.2
		c-2.4-7.3-7.1-9.6-13.1-9.3c-5.7,0.3-9.9,2.7-11.5,9.3C2627.2,599.2,2634.8,599.2,2643.5,599.2z"/>
	<path class="st0" d="M3792.4,606c0,5.1,0.1,10.1,0,15.2c-0.2,4.5-1.8,6.2-6.7,4.1c-2.3-1-5.8-0.2-8.5,0.7
		c-13.4,4.4-26.1-1.9-29.6-15.1c-3.3-12.5,4.6-25.7,17.3-27.8c4-0.6,8.4,0.4,12.5,1.4c3.4,0.9,6.6,4.1,9.7-0.5
		c1.8,1.5,5,2.8,5.1,4.4C3792.8,594.2,3792.4,600.1,3792.4,606z M3769.8,589.8c-8.2,0.1-15.2,7.4-15,15.7c0.2,7.8,7.4,15,14.9,15.1
		c7.9,0.1,15.5-7.4,15.6-15.4C3785.3,597.3,3777.8,589.8,3769.8,589.8z"/>
	<path class="st0" d="M2758.2,627.8c-12.4,0.1-22.4-9.7-22.6-22.3c-0.2-12.3,9.7-22.7,22-23c13-0.3,23.7,10.2,23.5,23.2
		C2780.9,617.9,2770.8,627.6,2758.2,627.8z M2758.3,620.6c7.9-0.2,14.7-7.2,14.7-15.2c0-8.4-7.3-15.8-15.2-15.5
		c-7.6,0.3-14.3,7.7-14.3,15.7C2743.5,613.5,2750.6,620.7,2758.3,620.6z"/>
	<path class="st0" d="M3400.4,605.1c0.1,12.8-9.3,22.2-22.2,22.3c-13.6,0.2-23-9-23-22.2c0-12.9,10-22.8,23-22.7
		C3390.7,582.5,3400.4,592.4,3400.4,605.1z M3392.7,605.3c0-8-7.5-15.6-15.3-15.4c-7.4,0.2-14.5,7.6-14.5,15.3
		c0,8.1,7.5,15.7,15.2,15.4C3385.7,620.4,3392.7,613,3392.7,605.3z"/>
	<path class="st0" d="M3916.1,604.6c0.1,13.1-9.7,23.3-22.4,23.4c-11.8,0.1-22.5-10.6-22.6-22.7c-0.1-12.4,9.8-22.5,22.3-22.8
		C3905.8,582.1,3916,592.1,3916.1,604.6z M3893.4,589.9c-7.9,0.3-14.9,8-14.5,16.1c0.4,7.8,7.7,14.8,15.2,14.6
		c8-0.2,14.8-7.8,14.4-16.1C3908,596.6,3900.9,589.6,3893.4,589.9z"/>
	<path class="st0" d="M3532.6,625.6c0-8.3,0.2-16.7-0.1-25c-0.2-5.4-2.1-10.2-8.5-10.7c-6.4-0.5-10.8,2.3-12.6,8.7
		c-0.6,2.1-1.1,4.2-1.2,6.3c-0.3,5,0.1,10.2-0.7,15.1c-0.3,2.2-2.8,4.1-4.2,6.2c-1.2-2-3.3-4-3.4-6.1c-0.3-10.4-0.2-20.8-0.1-31.2
		c0-5.3,2.2-6.6,7.1-4.1c1.6,0.8,4.2,0.6,5.9-0.1c13.7-5.8,23.5-0.3,24.5,14.3c0.5,6.6,0.9,13.3,0.6,19.9c-0.1,2.6-2.4,5.1-3.7,7.7
		C3535,626.3,3533.8,626,3532.6,625.6z"/>
	<path class="st0" d="M2896,585.9c8.1-1.3,14.8-2.8,21.6-3.4c8.8-0.8,15.8,5.9,16.5,15.9c0.5,7.5,0.4,15,0,22.4
		c-0.1,1.8-2.2,3.6-3.4,5.3c-1.3-1.9-3.7-3.7-3.8-5.7c-0.5-6.4,0.1-12.8-0.3-19.2c-0.4-5.7-1.7-11.6-9.5-11.5
		c-7.2,0.1-11.7,3.8-12.6,11c-0.8,6.9-0.8,13.9-1.6,20.7c-0.2,1.6-2.1,3.1-3.3,4.6c-1.2-1.5-3.4-2.9-3.4-4.4
		C2895.8,609.3,2896,596.7,2896,585.9z"/>
	<path class="st0" d="M3925.7,604.5c0-5.3-0.4-10.7,0.2-16c0.2-1.8,2.7-4.4,4.4-4.6c4.7-0.7,9.6,0.3,14.3-0.5
		c11.3-1.8,17.7,2.6,18.6,13.8c0.5,6.9,1,13.9,0.6,20.8c-0.2,2.7-2.9,5.3-4.4,8c-0.9-2.5-2.4-4.9-2.6-7.4c-0.5-5.3-0.1-10.7-0.4-16
		c-0.4-6-1.1-12.2-9.1-12.7c-7.1-0.5-12.9,5.2-13.4,13.1c-0.3,5.6,0.1,11.3-0.6,16.8c-0.3,2.3-2.7,4.3-4.2,6.4
		c-1.1-2.1-2.9-4.2-3.1-6.4C3925.4,614.7,3925.7,609.6,3925.7,604.5z"/>
	<path class="st0" d="M3844.8,617c-1.2,1.9-2,4.2-3.6,5.6c-8.8,7.8-26.2,6.7-33.8-1.9c-8.1-9.1-7.5-23.8,1.2-32
		c8.9-8.3,25.9-8.6,33.9-0.3c1.3,1.3,1.2,4,1.8,6.1c-2.2,0-4.4,0.4-6.4-0.1c-1.7-0.4-3.2-1.9-4.9-2.7c-7.7-3.7-15.5-2.1-20.2,4.2
		c-4.7,6.1-4.3,12.5,0.1,18.5c4.5,6.1,13,7.8,20.3,4.5c3.3-1.5,6.8-2.7,10.2-4C3843.9,615.6,3844.4,616.3,3844.8,617z"/>
	<path class="st0" d="M2987.4,602c0-5.5-0.4-9.3,0.2-13c0.3-1.9,2.2-3.6,3.3-5.4c1.4,1.8,3.8,3.5,4,5.4c0.7,6.3,0.6,12.8,0.9,19.2
		c0.4,8.2,4.1,12.3,10.7,12.1c6.7-0.1,10.9-4.4,11.3-12c0.3-6.4,0-12.8,0.6-19.2c0.2-2,2.4-3.7,3.7-5.6c1.3,2.2,3.6,4.3,3.6,6.5
		c0.1,7.2-0.6,14.4-1,21.5c-0.6,9.5-6.7,15.6-16.3,16.3c-10.4,0.7-18.7-4.9-20.2-14.2C2987.5,609.3,2987.6,604.7,2987.4,602z"/>
	<path class="st0" d="M3040.7,626.5c-1.1-2.5-3.1-5.1-3.2-7.7c-0.4-9.9-0.2-19.7-0.1-29.6c0-4.7,1.4-7,6.8-4.8
		c2.3,0.9,5.5,0.4,8.1-0.3c14.7-4.1,22.6,1.8,22.7,17.2c0.1,6.1,0.3,12.3-0.1,18.4c-0.1,2.2-1.9,4.3-2.9,6.4
		c-1.3-2.2-3.5-4.3-3.8-6.7c-0.7-6.3-0.6-12.8-0.9-19.1c-0.3-5-1.3-9.8-7.6-10.5c-6.5-0.7-11.4,1.9-12.7,8.3
		c-1.4,7-1.5,14.3-2.2,21.4c-0.2,2-0.7,4-1,6C3042.7,625.9,3041.7,626.2,3040.7,626.5z"/>
	<path class="st0" d="M3253.3,605.4c0-5.3-0.3-10.7,0.1-16c0.3-4.2,1.5-7.4,7.1-4.6c1.9,1,5,0,7.5-0.7c14.7-4.1,22.7,1.9,22.9,17.2
		c0.1,6.4,0.2,12.8-0.1,19.2c-0.1,1.9-1.9,3.7-2.9,5.6c-1.2-1.7-3.3-3.3-3.5-5.2c-0.7-6.9-0.7-13.9-1-20.8
		c-0.3-5.2-1.8-9.6-7.9-10.3c-6.5-0.7-11.2,2.3-13,8.4c-1.4,4.8-1.4,10-1.8,15c-0.2,2.7,0.5,5.5-0.2,8c-0.5,1.9-2.6,3.3-3.9,4.9
		c-1.1-1.6-3-3.1-3.1-4.8C3253,616.1,3253.3,610.7,3253.3,605.4z"/>
	<path class="st0" d="M3203.7,599.4c0-3.7-0.3-7.5,0.1-11.2c0.2-1.6,2-3,3.1-4.5c1.2,1.4,3.3,2.7,3.4,4.2c0.5,6.4,0,12.8,0.5,19.2
		c0.7,9.1,4.9,13.5,11.8,13.3c7-0.2,10.7-4.8,11.1-14c0.3-6.1,0.1-12.3,0.6-18.4c0.1-1.6,2.1-2.9,3.2-4.4c1.4,1.5,3.9,3.1,3.9,4.6
		c0,8.8-0.3,17.6-1.3,26.4c-0.8,7.5-7.1,12.4-15.9,13.3c-8.5,0.9-16.4-2.9-18.8-10.5c-1.8-5.7-2-12-2.9-18
		C3203.2,599.4,3203.5,599.4,3203.7,599.4z"/>
	<path class="st0" d="M2275.7,309.3c0-3.2-0.4-6.4,0.1-9.5c1-5.9,4.7-9.6,10.8-9.9c6-0.3,9.7,3.4,10.3,9c0.7,6.6,0.8,13.3,0.4,19.9
		c-0.1,1.6-2.7,3.2-4.4,4.5c-0.7,0.5-2.1,0.1-3.1,0.1C2275.5,323.7,2275.5,323.7,2275.7,309.3z"/>
	<path class="st0" d="M2341.7,331.7c0,15.3,0,15.5-15.6,13.8c-2.1-0.2-5.3-3.4-5.6-5.4c-0.7-5.5-0.4-11.2,0.1-16.7
		c0.6-6.7,5.8-11.3,11.7-10.6c6.8,0.8,9.5,5.2,9.4,11.7C2341.7,326.9,2341.7,329.3,2341.7,331.7z"/>
	<path class="st0" d="M2342.1,371c0,0.5,0,1.1,0,1.6c0,12.7-5.2,16.5-17.8,12.6c-1.8-0.6-3.6-3.6-3.9-5.7c-0.6-4.7,0.1-9.6-0.3-14.3
		c-0.6-7.2,2.1-9.9,9.6-9.6C2342.1,356.1,2342.1,355.7,2342.1,371z"/>
	<path class="st0" d="M4023.3,619.4c2.5-0.5,5.5-2,7.3-1.1c4.4,2.2,8.9,3.4,10.8-1.6c0.8-1.9-3.2-6.1-5.6-8.7
		c-2.5-2.7-7-4.3-8.2-7.3c-1.5-3.7-2.2-9.6-0.2-12.4c2.3-3.2,7.9-5.1,12.2-5.3c3.1-0.1,6.3,3.5,9.4,5.5c-0.5,1-1,2.1-1.4,3.1
		c-2.6-0.4-5.3-1.4-7.9-1.2c-2.3,0.2-4.5,1.6-6.7,2.5c1,1.9,1.5,4.3,2.9,5.6c2.4,2.1,5.5,3.3,8.1,5.2c6.3,4.7,7.9,11.5,4.2,17.5
		c-3.6,5.9-10.7,8.1-17.6,5.1c-2.4-1-4.6-2.6-6.9-4C4023.6,621.5,4023.4,620.5,4023.3,619.4z"/>
	<path class="st0" d="M2812.5,592.2c-4.2-0.8-6.9-1.7-9.7-1.7c-2.1,0-4.3,1.1-6.4,1.7c0.7,2,1,4.5,2.3,6c1.7,1.9,4.3,3.1,6.5,4.6
		c8.2,5.5,10.3,12.1,6.1,18.9c-4,6.5-13,8-20.6,3.5c-1.5-0.9-2.8-2.3-4.1-3.5c0-0.8,0-1.7,0-2.5c2.6-0.2,5.3-0.7,7.9-0.6
		c1.2,0,2.7,1.8,3.6,1.5c2.6-0.8,5.2-2,7.1-3.8c0.5-0.5-1.2-4.2-2.6-5.5c-3.3-3.1-8.2-4.9-10.4-8.5c-2.2-3.6-3.3-9-2.3-13
		c0.7-2.6,5.8-5.1,9.3-5.7C2805.4,582.4,2808.9,585,2812.5,592.2z"/>
	<path class="st0" d="M3474.2,592c-3.6-0.7-6.3-1.7-9-1.7c-2.1,0-4.2,1.3-6.2,2.1c0.7,2,0.9,4.6,2.3,5.9c2.5,2.3,6.6,3.2,8.5,5.8
		c2.7,3.8,5.7,8.8,5.2,12.9c-0.5,3.7-5.1,8.8-8.7,9.6c-4.5,1-9.9-1.6-14.8-3.2c-0.7-0.2-1.3-3.6-0.6-4.6c0.7-1,3.1-1.3,4.7-1.2
		c1.2,0.1,2.3,1.9,3.4,1.8c2.6-0.3,5.8-0.5,7.6-2.1c0.9-0.8,0-5.2-1.4-6.6c-3.2-3.1-8.3-4.7-10.5-8.3c-2.2-3.5-3.7-9.5-2.1-12.8
		c1.6-3.4,7-6.2,11.2-6.8C3468.1,582.1,3473.4,583.7,3474.2,592z"/>
	<path class="st0" d="M3728.7,628.3c-8.4-13.8,3.7-29.8-7.8-39.7c1.6-5.9,3-11.4,4.8-16.7c0.4-1.3,2.5-2,3.9-2.9
		c1.1,1.6,2.8,3,3.1,4.7c1.5,8.9,1.4,9,7.5,11.3c0.1,0.5,0.4,1.4,0.2,1.5c-9.9,5.5-7.4,14.9-7.5,23.4c-0.1,3.5,0.3,7-0.3,10.4
		C3732.2,622.6,3730.5,624.7,3728.7,628.3z"/>
	<path class="st0" d="M3593.7,596.5c0-8-0.2-16,0.1-23.9c0.1-1.6,2-3.2,3-4.7c1.5,1.5,4.2,3,4.2,4.5c0.3,16.5,0.3,33,0,49.5
		c0,1.5-2.4,2.9-3.7,4.4c-1.2-1.7-3.5-3.3-3.5-5C3593.5,613,3593.7,604.7,3593.7,596.5z"/>
	<path class="st0" d="M2552.8,586.3c-1.3,1.2-2.4,3.2-3.9,3.5c-8.3,2.1-9.7,8-9.6,15.3c0.1,5.6-0.2,11.2-0.9,16.7
		c-0.2,1.6-2.3,2.9-3.6,4.4c-1.2-1.5-3.3-3-3.4-4.5c-0.3-10.9-0.2-21.8,0-32.7c0-1.6,1.5-4.5,2.4-4.5c6.1-0.4,12.2-0.2,18.2-0.2
		C2552.3,584.9,2552.5,585.6,2552.8,586.3z"/>
	<path class="st0" d="M3812.1,395.8c-5.3-0.2-9.5-3.2-9.7-9.5c-0.2-6.5,4-9.6,10.3-9.6c6,0,10.6,2.3,11.3,8.8
		C3824.6,390.9,3819.2,395.7,3812.1,395.8z"/>
	<path class="st0" d="M3482.6,386c-0.1,5.9-4.8,9.9-11.4,9.6c-6.2-0.4-10.6-3.8-10.4-9.9c0.2-6.2,5.1-9,11.2-9
		C3478.5,376.6,3482.7,380.3,3482.6,386z"/>
	<path class="st0" d="M3483.7,604.6c0-5.3-0.3-10.7,0.2-15.9c0.2-1.8,2.3-3.4,3.6-5.1c1.4,1.6,4,3.1,4,4.7c0.4,10.9,0.4,21.8,0,32.7
		c-0.1,1.8-2.4,3.5-3.7,5.2c-1.4-1.9-3.7-3.7-3.9-5.7C3483.4,615.3,3483.7,609.9,3483.7,604.6z"/>
	<path class="st0" d="M3855,604.4c0-5.6-0.3-11.2,0.2-16.8c0.1-1.4,2.4-2.7,3.6-4c1.2,1.2,3.3,2.4,3.3,3.7c0.3,11.7,0.3,23.5,0,35.2
		c0,1.3-2.2,2.5-3.4,3.8c-1.2-1.4-3.5-2.7-3.6-4.2C3854.8,616.2,3855,610.3,3855,604.4C3855,604.4,3855,604.4,3855,604.4z"/>
	<path class="st0" d="M3710.2,605.9c0,5.3,0.3,10.7-0.2,16c-0.1,1.5-2.4,2.9-3.6,4.3c-1.3-1.4-3.8-2.9-3.8-4.3
		c-0.1-11.5,0.1-23,0.5-34.4c0-1.3,1.9-2.6,3-3.9c1.3,1.3,3.8,2.5,3.9,3.8C3710.4,593.6,3710.2,599.8,3710.2,605.9
		C3710.2,605.9,3710.2,605.9,3710.2,605.9z"/>
	<path class="st0" d="M3618.4,605.2c0,5.3,0.3,10.7-0.2,15.9c-0.2,1.8-2.3,3.4-3.6,5.1c-1.2-1.5-3.4-3-3.4-4.5
		c-0.3-11.2-0.3-22.3,0-33.5c0-1.6,2.7-3,4.1-4.5c1,1.6,2.8,3.1,2.9,4.8C3618.6,594,3618.4,599.6,3618.4,605.2z"/>
	<path class="st0" d="M3865.8,571.9c-2.9,2.4-4.9,5.4-6.4,5.1c-2.2-0.3-4-3-5.9-4.7c1.8-1.8,3.4-4.7,5.5-5.2
		C3860.5,566.8,3862.7,569.7,3865.8,571.9z"/>
	<path class="st0" d="M3614.4,565.2c2.4,3,5,4.9,4.9,6.7c-0.1,1.9-2.7,3.7-4.3,5.5c-2-1.7-4.8-3.2-5.6-5.3
		C3609,570.8,3612,568.4,3614.4,565.2z"/>
	<path class="st0" d="M3495.6,571.7c-3.6,2.6-5.6,5.1-7.7,5.3c-1.7,0.1-3.5-2.8-5.3-4.3c1.8-1.8,3.2-4.6,5.3-5.2
		C3489.4,567,3491.8,569.5,3495.6,571.7z"/>
	<path class="st0" d="M3699.3,572.2c3.2-2.3,5.2-4.8,6.9-4.7c1.9,0.1,3.6,2.7,5.5,4.2c-1.8,1.9-3.3,4.7-5.4,5.3
		C3705,577.4,3702.6,574.6,3699.3,572.2z"/>
</g>
</svg>
