<svg xmlns="http://www.w3.org/2000/svg" viewBox="0 0 1274.35 233.59"><defs><style>.cls-1{fill:#fff;}</style></defs><g id="Capa_2" data-name="Capa 2"><g id="Capa_1-2" data-name="Capa 1"><path class="cls-1" d="M0,80.82c3.27-3.16,7-5,11.43-2.78,4.12,2,4.19,6.08,4.19,10,0,25.82.77,51.67-.2,77.45-1.16,30.82,17.69,43.94,38.19,49.65,33.68,9.38,59.67-12.37,65.77-38.11,5.32-22.45-7.39-39.11-30.5-40-8.42-.31-16.81-.64-25.28-.31-18.54.73-32.88-13.16-33-31.55-.16-26.37-.07-52.74,0-79.1,0-6.27,2.92-9.8,7.84-9.93s8,3.27,8.09,9.73c.15,24.17.09,48.34.12,72.51,0,15.26,6.44,21.5,21.79,21.73,9.53.14,19.1-.57,28.61.91,6.44,1,12.66,2.63,18.13,6.13,4.13,2.65,5.19,1.82,5.16-2.89-.15-20.32-.06-40.65-.12-61a22.89,22.89,0,0,1,.81-7.6c1.35-3.94,4.18-6,8.3-5.92,4.37.08,6.62,2.91,7.45,6.82a32.65,32.65,0,0,1,.33,6.57q0,50.54,0,101.07c0,38.43-18.28,60.78-56.12,68.71a11,11,0,0,0-1.53.6H55.17c-2.28-.62-4.55-1.29-6.84-1.85a87.69,87.69,0,0,1-24.24-9.87C10.92,214,3.85,201.81,0,187.43Z"/><path class="cls-1" d="M287.14,105c0,20.5-.11,41,.07,61.51.05,5.13-1.62,7.2-7,7.07-16.05-.39-14.42,1.82-14.48-14.43-.05-13.18-.17-26.36.07-39.54.09-4.81-1.12-6.87-6.45-6.75-14.14.34-28.3.27-42.44,0-4.66-.08-6,1.6-5.92,6.06.21,15.74.1,31.49.07,47.23,0,7-.31,7.32-7,7.3-14.38-.05-13.37,1.65-13.37-13.23q0-57.12,0-114.24c0-8.13.27-8.41,8.3-8.39,13.48,0,12-1.26,12.06,12.11.05,12.45.13,24.9,0,37.35-.06,4.27,1.56,5.86,5.83,5.81,14.33-.17,28.66-.26,43-.06,4.7.06,6-1.75,5.95-6.15-.22-14.28,0-28.56-.23-42.84-.07-5.09,1.77-7.28,7.08-7.21,16,.21,14.46-1.18,14.48,14Q287.18,77.8,287.14,105Z"/><path class="cls-1" d="M520,137.19c0,10.08-.14,20.16.06,30.23.08,4.52-1.7,6.17-6.19,6.12-14.84-.18-13,1.15-13.28-12.79-.33-16.83,1.1-33.7-1-50.49-1.18-9.34-6.41-14-15.32-13.74C476,96.78,471,102,470.17,111.1c-1.74,18.28-.57,36.61-.9,54.91-.13,7.2-.28,7.42-7.43,7.48-12.8.1-12.8.1-12.8-12.42q0-22.26,0-44.52c0-3.85-.11-7.69-1.67-11.33a13.81,13.81,0,0,0-15.07-8.53c-7.91,1.13-11.58,4.76-12.82,12.09-1.41,8.38-.9,16.81-1,25.22q-.2,16.75,0,33.52c0,4.08-1.29,5.92-5.69,6-13.67.36-13.67.5-13.67-13.06,0-16.48.12-33,0-49.46C399,97.14,405,86.92,417.52,81.12c13.25-6.11,26.25-5.2,37.7,4.37,3.36,2.81,4.9,2.93,8.4.06,11.21-9.19,24-10.85,37.18-4.75,12.57,5.82,19.49,15.72,19.24,30C519.89,119.61,520,128.4,520,137.19Z"/><path class="cls-1" d="M627,141.35c0,8.79-.13,17.58.05,26.37.08,4.28-1.68,5.85-5.9,5.81-15.7-.16-13.47,1.23-13.58-12.9-.09-11.9,0-23.81,0-35.71-.09-17.55-9.58-27.57-26.79-28.38-15.64-.74-27.91,9.78-29.84,25.57-2.34,19.25,11.22,35,29.49,34.33,7.1-.26,12.45-3.95,17.47-8.41,1.21-1.06,2.36-2.9,4.11-2.29,2.08.73,1.67,3,1.76,4.79.07,1.47,0,2.93,0,4.4,0,12.47-1.77,14.87-13.91,18.7C563.1,182.07,533,161,531.58,132.7c-.31-6-.5-12.07.49-18.08,5.5-33.33,43-43.16,66.1-34.36,20,7.6,28.81,20.06,28.86,41.31Q627.06,131.45,627,141.35Z"/><path class="cls-1" d="M323.35,111.85c0,8.06-.21,16.12,0,24.17.38,11.51,9.39,20.4,20.29,20.41,10.51,0,19.77-8.8,20.09-20.1.45-15.92.23-31.85.31-47.78,0-8.57.56-9.08,9-9.11,11.06,0,11.13,0,11.05,10.77-.13,16.65.27,33.3-.63,50-1.27,23.54-25.19,41.19-51.82,33.49-17.23-5-26.69-17.58-27.59-35.35-.86-17-.74-34-.8-51,0-7.07.79-7.77,8-7.83,12-.1,12-.1,12,12.09q0,10.16,0,20.32Z"/><path class="cls-1" d="M701.44,141.93c0-8.6.28-17.22-.08-25.82-.4-9.6-8.33-18.33-17.16-19.62-9.19-1.35-18.94,3.74-22,12-2.08,5.53-1.86,11.53-1.95,17.35q-.35,20.33,0,40.66c.09,5.13-1.5,7.16-6.9,7.11-13.4-.11-13.47.1-13.39-13.55.09-15.37-.12-30.74.68-46.12,1.06-20.1,19.08-36.89,40.19-36.66,22,.24,39.74,16.75,40,37.24.23,16.64.57,33.27.73,49.91.09,8.59-.51,9.06-9,9.08-11,0-11,0-11-11.22V141.93Z"/><path class="cls-1" d="M829.91,111.92a12.47,12.47,0,0,0,1.9,1.14c17.09,5.26,21.47,16.24,20.88,28.93-.64,13.61-12,26.27-26.07,28.92-14.53,2.74-29.31,1-44,1.17-2.6,0-4-1.59-4.4-4.06a38.25,38.25,0,0,1-.4-5.46q0-46.92,0-93.86c0-8.62.53-9.11,8.94-9.11,10.28,0,20.57,0,30.85.08,13.79.12,25.18,8,28.31,19.37,3.45,12.6-1.85,24.32-14.44,31.93ZM790.16,140c0,5.68.09,11.35,0,17-.07,3.33,1,5.2,4.69,5.12,8.26-.19,16.55.16,24.78-.45,13.1-1,21.07-9.49,21-21.59-.1-11.38-8.24-19.49-20.91-20.39-8.23-.58-16.52,0-24.74-1.1-3.17-.43-4.81,1.06-4.77,4.38C790.2,128.66,790.15,134.33,790.16,140Zm0-51.1h0v4.38c0,17.53,0,17.35,17.6,15.37,7.57-.85,15-1.58,20.79-7.21s7.53-12.24,5.14-20c-2.19-7.08-7.72-10.29-14.32-11.11-8.15-1-16.44-.9-24.66-1.33-3.31-.18-4.63,1.33-4.56,4.55C790.25,78.67,790.17,83.79,790.17,88.9Z"/><path class="cls-1" d="M992.16,131.39c0,26.54-16.88,43-44.11,43-25.59,0-43.71-17.14-43.56-41.61.17-29.1,17-43.43,44.38-44.27C975.83,87.7,992.17,104.52,992.16,131.39Zm-11.35.64c.1-10.24-1.49-20-10-26.83-19.7-15.86-49.67-5.2-54.24,19.51-2.35,12.7-.16,25.11,10.81,33.25,11.68,8.66,25.37,8.95,38.22,2.94C977.33,155.41,980.93,144.36,980.81,132Z"/><path class="cls-1" d="M1023.44,100.41a39.45,39.45,0,0,1,24.85-11.54c19.33-1.92,33.28,8.51,34.62,26.59,1.27,17.2.32,34.38.68,51.56.06,3-1.11,4.93-4.41,5.12s-6-.75-6.36-4.46a93.05,93.05,0,0,1-.39-9.3c0-11.9.14-23.8-.09-35.69-.33-16.51-7.19-24.23-21.14-24.26-16.28,0-27.81,10.12-28.15,25.34-.32,13.9-.09,27.81-.11,41.72,0,3.26-.16,6.36-4.61,6.68-4.21.3-6.75-1-6.75-5.67,0-23.06,0-46.12,0-69.18,0-3.3.78-6.45,4.9-6.69,3.76-.22,5.65,2.1,6.27,5.6C1022.94,97.11,1023.07,98,1023.44,100.41Z"/><path class="cls-1" d="M1242.89,174.48c-6.58-.51-13.09-1.49-19.19-4.33-2.31-1.08-4.08-2.59-4.26-5.27-.13-2-.16-4.28,1.37-5.68s3.53,0,5.07.75a40,40,0,0,0,22.43,4.27,22.56,22.56,0,0,0,7.45-1.82,11.43,11.43,0,0,0,7.14-10.28c.29-4.76-2.17-8.08-6.29-10.09-6.59-3.23-13.34-6.16-19.92-9.42a52,52,0,0,1-8.91-5.45c-10.66-8.35-10.39-23.51.45-31.66,12.62-9.48,26.32-7.26,40-3.4,2.79.78,4.44,8,2.66,10.13-1.45,1.75-3.09.51-4.5-.1a40.34,40.34,0,0,0-20.4-3.59,19.85,19.85,0,0,0-8.36,2.55c-8.27,4.94-8.32,16.08.19,20.59,7.93,4.22,16.14,8,24.38,11.58,7.77,3.39,12,9.22,12.09,17.43s-3.85,14.68-11.21,18.86C1256.85,173.12,1249.93,173.86,1242.89,174.48Z"/><path class="cls-1" d="M1181.91,164.31a38.76,38.76,0,0,0,16.9-3.26c2-.87,4.74-3.58,6.33.42,1.46,3.68.58,7-3.42,8.61-8.62,3.56-17.59,5.36-26.91,3.9-25.09-3.95-36.83-18.12-36.53-43.83.25-21.24,16-37.75,38.54-41,8.85-1.29,17.15.64,25.51,2.73,4.74,1.19,4.23,5.28,3.46,8.55-1,4.36-4.17,1.61-6.16.89-9.08-3.31-18.29-4.12-27.56-1.37a30.48,30.48,0,0,0-22.15,27.8c-1,17.61,4.64,28.75,17.17,34.29C1171.77,164.07,1176.66,164.4,1181.91,164.31Z"/><path class="cls-1" d="M1118.93,131.93q0,16.73,0,33.45c0,3.52-.25,6.7-5,6.8s-6.37-2.57-6.36-6.92q.06-34.27,0-68.54c0-3.68,1.29-6,5.33-6.08s6,2.27,6,6.2c0,11.69,0,23.39,0,35.09Z"/><path class="cls-1" d="M885.2,132c0,11.33-.06,22.66,0,34,0,3.93-1.17,6.34-5.58,6.3-4.25,0-5.1-2.55-5.09-6.14q.07-34.53,0-69.08c0-3.4.39-6.35,4.8-6.38,4.61,0,5.85,2.64,5.8,6.77-.11,11.51,0,23,0,34.54Z"/><path class="cls-1" d="M107,90.49c0,3.84.16,7.7,0,11.53-.32,5.92-3.32,9.44-7.85,9.59-4.34.14-7.54-2.89-8.27-8.61-1.07-8.37-.63-16.82-.32-25.23C90.69,72.39,95,73,98.7,73s7.87-.5,8.16,4.89c.24,4.2,0,8.42,0,12.63Z"/><path class="cls-1" d="M76.34,90.78c0,4.21.2,8.43,0,12.63-.29,4.92-3.66,8.24-7.89,8.25-4.51,0-7.45-3-8.05-8a158.32,158.32,0,0,1-.71-23.55c.19-5.91,1.88-7.07,9.23-7,6.43.1,7.44,1,7.52,7.23,0,3.48,0,7,0,10.43Z"/><path class="cls-1" d="M76.4,48.94c0,4-.09,8,0,12,.1,3.8-1.47,5.62-5.44,5.86-10.2.63-11.39-.37-11.4-10.64,0-6.38-.13-12.76.09-19.14.2-5.91,1.8-6.95,9.24-6.8,6.47.14,7.42,1,7.49,7.2C76.44,41.28,76.4,45.11,76.4,48.94Z"/><path class="cls-1" d="M76.41,13.67v1.09c0,8.48-6,12.25-13.94,8.91a3.29,3.29,0,0,1-2.19-2.27c-1.22-6-1.45-12,1.36-17.57,1.5-3,4.5-4.19,7.91-3.74,3.25.44,5.16,2.47,6.21,5.46C76.69,8.21,76.29,11,76.41,13.67Z"/><path class="cls-1" d="M107.25,29.83c-.21,9-5.3,12.4-14,9.31a3.35,3.35,0,0,1-2.53-2.62c-.59-5.27-1.28-10.64.74-15.71a7.69,7.69,0,0,1,8.38-5c3.79.35,5.91,2.79,6.57,6.38C106.88,24.72,107,27.29,107.25,29.83Z"/><path class="cls-1" d="M90.37,55.78c0-1.83-.05-3.66,0-5.49.11-3.33,1.82-5,5.22-5,.37,0,.74,0,1.1,0,10.16-.34,10.48,0,10.49,10.18v1.1c0,9.86-3.56,12.52-13.24,10.06a4.24,4.24,0,0,1-3.52-4.28c-.12-2.19,0-4.39,0-6.58Z"/><path class="cls-1" d="M880,59.6c4.42,0,7.49,1.83,7.83,6.53.32,4.35-3.31,7.39-8.32,7.31-4.62-.08-8.14-3.23-8-7.16S875.13,59.58,880,59.6Z"/><path class="cls-1" d="M1121.23,66.26c.12,4-3.38,7.41-7.78,7.51s-8-3.08-8.09-7.18,3-6.82,7.49-7C1117.77,59.46,1121.12,62.11,1121.23,66.26Z"/></g></g></svg>